<svg id="Layer_1" data-name="Layer 1" xmlns="http://www.w3.org/2000/svg" viewBox="0 0 69.567 57.748"><defs><style>.cls-1{fill:purple;}</style></defs><g id="SVGRepo_iconCarrier" data-name="SVGRepo iconCarrier"><path class="cls-1" d="M58.359,7.194a55.788,55.788,0,0,0-13.92-4.368A32.232,32.232,0,0,0,42.663,6.52a50.91,50.91,0,0,0-15.411,0,40.053,40.053,0,0,0-1.811-3.694A55.808,55.808,0,0,0,11.52,7.194C2.713,20.476.334,33.437,1.506,46.186a55.767,55.767,0,0,0,17.081,8.736,43.1,43.1,0,0,0,3.658-6,33.15,33.15,0,0,1-5.753-2.8c.5-.355.958-.746,1.42-1.1a39.378,39.378,0,0,0,34.126,0c.462.391.924.746,1.421,1.1a37.414,37.414,0,0,1-5.753,2.805,43,43,0,0,0,3.658,6,55.382,55.382,0,0,0,17.081-8.736A58.09,58.09,0,0,0,58.43,7.194ZM23.736,38.373c-3.338,0-6.072-3.089-6.072-6.889S20.327,24.6,23.736,24.6s6.108,3.089,6.072,6.889C29.808,35.248,27.145,38.373,23.736,38.373Zm22.408,0c-3.339,0-6.073-3.089-6.073-6.889S42.734,24.6,46.144,24.6s6.107,3.089,6.072,6.889C52.216,35.248,49.553,38.373,46.144,38.373Z"/></g></svg>