<?xml version="1.0" encoding="utf-8"?>
<!-- Generator: Adobe Illustrator 25.2.0, SVG Export Plug-In . SVG Version: 6.00 Build 0)  -->
<svg version="1.1" id="Layer_1" xmlns="http://www.w3.org/2000/svg" xmlns:xlink="http://www.w3.org/1999/xlink" x="0px" y="0px"
	 viewBox="0 0 272.9 270.9" style="enable-background:new 0 0 272.9 270.9;" xml:space="preserve">
<style type="text/css">
	.st0{fill:#FDFD95;}
</style>
<g>
	<path class="st0" d="M256.7,133.8c0,0.8-0.6,1.5-1.4,1.6c-95,14.1-106.2,25.4-120.3,120.3c-0.1,0.8-0.8,1.4-1.6,1.4
		c-0.8,0-1.5-0.6-1.6-1.4c-14.1-95-25.4-106.2-120.3-120.3c-0.8-0.1-1.4-0.8-1.4-1.6s0.6-1.5,1.4-1.6
		c95-14.1,106.2-25.4,120.3-120.3c0.1-0.8,0.8-1.4,1.6-1.4c0.8,0,1.5,0.6,1.6,1.4c14.1,95,25.4,106.2,120.3,120.3
		C256.1,132.2,256.7,132.9,256.7,133.8z"/>
</g>
</svg>
