<svg id="Layer_1" data-name="Layer 1" xmlns="http://www.w3.org/2000/svg" viewBox="0 0 104.612 123.346"><defs><style>.cls-1{fill:#FDFD95;}</style></defs><path class="cls-1" d="M64.224,109.794c.68-.086.935,0,1.19-.086,15.559-9.369,26.1-22.658,30.1-40.546a29.16,29.16,0,0,0-.34-13.8,22.56,22.56,0,0,0-20.83-17.292c-5.271-.341-10.372.256-14.963,3.152-.34,2.47-.595,4.94-1.1,7.24a12.468,12.468,0,0,1-6.292,8.689c-2.551,1.448-5.1,1.448-6.461.085a4.93,4.93,0,0,1-.681-6.133A53.725,53.725,0,0,1,50.2,43.438,34.2,34.2,0,0,1,54.7,39.349c-1.446-9.626-10.543-13.714-21.425-9.711-.34,1.363-.68,2.811-1.105,4.174-1.7,5.026-4.847,8.859-9.948,10.648-1.955.681-4.081.937-5.781-.852-1.276-1.363-1.276-3.748.085-6.133,2.21-3.748,5.526-6.389,9.1-8.689,1.275-.766,2.551-1.533,3.826-2.214C27.75,11.665,14.4,1.1,1.309,7.065a6.572,6.572,0,0,1,.34-2.555A3.684,3.684,0,0,1,3.775,3.4C11,2.04,17.718,2.891,23.244,8.173a34.118,34.118,0,0,1,8.843,14.14c.255.766.51,1.533.85,2.3,0,.085.17.17.51.425.765-.085,1.7-.085,2.635-.255C47.475,22.994,53.426,26.061,58.7,36.708c1.02-.34,2.21-.681,3.316-1.107a30.1,30.1,0,0,1,19.724-.17c10.8,3.577,17.769,12.862,18.535,24.617A42.955,42.955,0,0,1,97.3,78.532c-5.611,14.4-14.794,25.725-28.567,33.136-.68.426-1.445.766-2.125,1.192a3.672,3.672,0,0,0-.425.767,27.515,27.515,0,0,0,8.332.255c2.635-.085,5.356-.34,8.246-.511a3.881,3.881,0,0,1-2.89,3.578,22.337,22.337,0,0,1-5.1,1.277c-4.592.171-9.268.256-13.944,0-3.656-.255-4.676-2.214-3.061-5.195,3.486-6.3,7.057-12.607,10.628-18.911a28.5,28.5,0,0,1,2.3-3.066c1.615,1.874.935,3.237.339,4.514C68.645,100.168,66.519,104.768,64.224,109.794ZM18.993,41.053c5.867-.767,9.523-4.515,9.778-9.8C24.86,33.812,21.119,36.112,18.993,41.053Zm28.737,13.2c5.016-1.193,7.4-4.6,6.887-9.8C51.386,47.186,48.58,49.741,47.73,54.256Z"/></svg>