<svg id="Layer_1" data-name="Layer 1" xmlns="http://www.w3.org/2000/svg" viewBox="0 0 69.567 57.748"><defs><style>.cls-1{fill:purple;}</style></defs><g id="SVGRepo_iconCarrier" data-name="SVGRepo iconCarrier"><g id="_7935ec95c421cee6d86eb22ecd12f847" data-name="7935ec95c421cee6d86eb22ecd12f847"><path class="cls-1" d="M61.778,15.227q.039.891.04,1.79c0,18.285-13.919,39.369-39.367,39.369A39.165,39.165,0,0,1,1.239,50.169a28.1,28.1,0,0,0,3.3.194,27.762,27.762,0,0,0,17.185-5.924A13.849,13.849,0,0,1,8.8,34.83a13.84,13.84,0,0,0,6.249-.237,13.846,13.846,0,0,1-11.1-13.567c0-.059,0-.116,0-.174a13.781,13.781,0,0,0,6.267,1.73A13.853,13.853,0,0,1,5.935,4.109,39.28,39.28,0,0,0,34.453,18.566,13.846,13.846,0,0,1,58.031,5.945a27.658,27.658,0,0,0,8.786-3.357,13.866,13.866,0,0,1-6.083,7.655,27.665,27.665,0,0,0,7.948-2.178A28.119,28.119,0,0,1,61.778,15.227Z"/></g></g></svg>